Sprint_06300001_forces_filt15Hz.mot
version=1
nRows=33
nColumns=19
inDegrees=yes
endheader
time	R_ground_force_vx	R_ground_force_vy	R_ground_force_vz	R_ground_force_px	R_ground_force_py	R_ground_force_pz	R_ground_torque_x	R_ground_torque_y	R_ground_torque_z	L_ground_force_vx	L_ground_force_vy	L_ground_force_vz	L_ground_force_px	L_ground_force_py	L_ground_force_pz	L_ground_torque_x	L_ground_torque_y	L_ground_torque_z	
0.897000	  0.000000	  0.000000	  0.000000	  1.102136	  0.000000	 -0.278705	  0.000000	  0.000000	  0.000000	  0.000000	  0.000000	  0.000000	  0.211742	  0.000000	 -0.317170	  0.000000	  0.000000	  0.000000
0.897500	  0.000000	  0.000000	  0.000000	  1.104282	  0.000000	 -0.278822	  0.000000	  0.000000	  0.000000	  0.000000	  0.000000	  0.000000	  0.210281	  0.000000	 -0.316895	  0.000000	  0.000000	  0.000000
0.898000	  0.000000	  0.000000	  0.000000	  1.106427	  0.000000	 -0.278939	  0.000000	  0.000000	  0.000000	  0.000000	  0.000000	  0.000000	  0.208819	  0.000000	 -0.316621	  0.000000	  0.000000	  0.000000
0.898500	  0.000000	  0.000000	  0.000000	  1.108573	  0.000000	 -0.279057	  0.000000	  0.000000	  0.000000	  0.000000	  0.000000	  0.000000	  0.207357	  0.000000	 -0.316347	  0.000000	  0.000000	  0.000000
0.899000	  0.000000	  0.000000	  0.000000	  1.110718	  0.000000	 -0.279174	  0.000000	  0.000000	  0.000000	  0.000000	  0.000000	  0.000000	  0.205895	  0.000000	 -0.316072	  0.000000	  0.000000	  0.000000
0.899500	  0.000000	  0.000000	  0.000000	  1.112864	  0.000000	 -0.279291	  0.000000	  0.000000	  0.000000	  0.000000	  0.000000	  0.000000	  0.204434	  0.000000	 -0.315798	  0.000000	  0.000000	  0.000000
0.900000	  0.000000	  0.000000	  0.000000	  1.115009	  0.000000	 -0.279408	  0.000000	  0.000000	  0.000000	  0.000000	  0.000000	  0.000000	  0.202972	  0.000000	 -0.315523	  0.000000	  0.000000	  0.000000
0.900500	  0.000000	  0.000000	  0.000000	  1.116941	  0.000000	 -0.279446	  0.000000	  0.000000	  0.000000	  0.000000	  0.000000	  0.000000	  0.201687	  0.000000	 -0.315296	  0.000000	  0.000000	  0.000000
0.901000	  0.000000	  0.000000	  0.000000	  1.118872	  0.000000	 -0.279483	  0.000000	  0.000000	  0.000000	  0.000000	  0.000000	  0.000000	  0.200403	  0.000000	 -0.315069	  0.000000	  0.000000	  0.000000
0.901500	  0.000000	  0.000000	  0.000000	  1.120804	  0.000000	 -0.279521	  0.000000	  0.000000	  0.000000	  0.000000	  0.000000	  0.000000	  0.199118	  0.000000	 -0.314841	  0.000000	  0.000000	  0.000000
0.902000	  0.000000	  0.000000	  0.000000	  1.122735	  0.000000	 -0.279559	  0.000000	  0.000000	  0.000000	  0.000000	  0.000000	  0.000000	  0.197834	  0.000000	 -0.314614	  0.000000	  0.000000	  0.000000
0.902500	  0.000000	  0.000000	  0.000000	  1.124667	  0.000000	 -0.279597	  0.000000	  0.000000	  0.000000	  0.000000	  0.000000	  0.000000	  0.196549	  0.000000	 -0.314386	  0.000000	  0.000000	  0.000000
0.903000	  0.000000	  0.000000	  0.000000	  1.126599	  0.000000	 -0.279635	  0.000000	  0.000000	  0.000000	  0.000000	  0.000000	  0.000000	  0.195264	  0.000000	 -0.314159	  0.000000	  0.000000	  0.000000
0.903500	  0.000000	  0.000000	  0.000000	  1.128530	  0.000000	 -0.279673	  0.000000	  0.000000	  0.000000	  0.000000	  0.000000	  0.000000	  0.193980	  0.000000	 -0.313932	  0.000000	  0.000000	  0.000000
0.904000	  0.000000	  0.000000	  0.000000	  1.130462	  0.000000	 -0.279711	  0.000000	  0.000000	  0.000000	  0.000000	  0.000000	  0.000000	  0.192695	  0.000000	 -0.313704	  0.000000	  0.000000	  0.000000
0.904500	  0.000000	  0.000000	  0.000000	  1.132394	  0.000000	 -0.279749	  0.000000	  0.000000	  0.000000	  0.000000	  0.000000	  0.000000	  0.191410	  0.000000	 -0.313477	  0.000000	  0.000000	  0.000000
0.905000	  0.000000	  0.000000	  0.000000	  1.134325	  0.000000	 -0.279787	  0.000000	  0.000000	  0.000000	  0.000000	  0.000000	  0.000000	  0.190126	  0.000000	 -0.313250	  0.000000	  0.000000	  0.000000
0.905500	  0.000000	  0.000000	  0.000000	  1.135992	  0.000000	 -0.279856	  0.000000	  0.000000	  0.000000	  0.000000	  0.000000	  0.000000	  0.188638	  0.000000	 -0.313101	  0.000000	  0.000000	  0.000000
0.906000	  0.000000	  0.000000	  0.000000	  1.137659	  0.000000	 -0.279926	  0.000000	  0.000000	  0.000000	  0.000000	  0.000000	  0.000000	  0.187150	  0.000000	 -0.312952	  0.000000	  0.000000	  0.000000
0.906500	  0.000000	  0.000000	  0.000000	  1.139326	  0.000000	 -0.279995	  0.000000	  0.000000	  0.000000	  0.000000	  0.000000	  0.000000	  0.185662	  0.000000	 -0.312803	  0.000000	  0.000000	  0.000000
0.907000	  0.000000	  0.000000	  0.000000	  1.140993	  0.000000	 -0.280064	  0.000000	  0.000000	  0.000000	  0.000000	  0.000000	  0.000000	  0.184174	  0.000000	 -0.312654	  0.000000	  0.000000	  0.000000
0.907500	  0.000000	  0.000000	  0.000000	  1.142660	  0.000000	 -0.280133	  0.000000	  0.000000	  0.000000	  0.000000	  0.000000	  0.000000	  0.182686	  0.000000	 -0.312506	  0.000000	  0.000000	  0.000000
0.908000	  0.000000	  0.000000	  0.000000	  1.144327	  0.000000	 -0.280203	  0.000000	  0.000000	  0.000000	  0.000000	  0.000000	  0.000000	  0.181198	  0.000000	 -0.312357	  0.000000	  0.000000	  0.000000
0.908500	  0.000000	  0.000000	  0.000000	  1.145994	  0.000000	 -0.280272	  0.000000	  0.000000	  0.000000	  0.000000	  0.000000	  0.000000	  0.179710	  0.000000	 -0.312208	  0.000000	  0.000000	  0.000000
0.909000	  0.000000	  0.000000	  0.000000	  1.147661	  0.000000	 -0.280341	  0.000000	  0.000000	  0.000000	  0.000000	  0.000000	  0.000000	  0.178222	  0.000000	 -0.312059	  0.000000	  0.000000	  0.000000
0.909500	  0.000000	  0.000000	  0.000000	  1.149328	  0.000000	 -0.280410	  0.000000	  0.000000	  0.000000	  0.000000	  0.000000	  0.000000	  0.176734	  0.000000	 -0.311911	  0.000000	  0.000000	  0.000000
0.910000	  0.000000	  0.000000	  0.000000	  1.150995	  0.000000	 -0.280480	  0.000000	  0.000000	  0.000000	  0.000000	  0.000000	  0.000000	  0.175246	  0.000000	 -0.311762	  0.000000	  0.000000	  0.000000
0.910500	  0.000000	  0.000000	  0.000000	  1.152375	  0.000000	 -0.280571	  0.000000	  0.000000	  0.000000	  0.000000	  0.000000	  0.000000	  0.174152	  0.000000	 -0.311660	  0.000000	  0.000000	  0.000000
0.911000	  0.000000	  0.000000	  0.000000	  1.153755	  0.000000	 -0.280662	  0.000000	  0.000000	  0.000000	  0.000000	  0.000000	  0.000000	  0.173058	  0.000000	 -0.311559	  0.000000	  0.000000	  0.000000
0.911500	  0.000000	  0.000000	  0.000000	  1.155135	  0.000000	 -0.280753	  0.000000	  0.000000	  0.000000	  0.000000	  0.000000	  0.000000	  0.171963	  0.000000	 -0.311458	  0.000000	  0.000000	  0.000000
0.912000	  0.000000	  0.000000	  0.000000	  1.156515	  0.000000	 -0.280844	  0.000000	  0.000000	  0.000000	  0.000000	  0.000000	  0.000000	  0.170869	  0.000000	 -0.311356	  0.000000	  0.000000	  0.000000
0.912500	  0.000000	  0.000000	  0.000000	  1.157894	  0.000000	 -0.280935	  0.000000	  0.000000	  0.000000	  0.000000	  0.000000	  0.000000	  0.169775	  0.000000	 -0.311255	  0.000000	  0.000000	  0.000000
0.913000	  0.000000	  0.000000	  0.000000	  1.159274	  0.000000	 -0.281026	  0.000000	  0.000000	  0.000000	  0.000000	  0.000000	  0.000000	  0.168680	  0.000000	 -0.311154	  0.000000	  0.000000	  0.000000
